<svg width="147" height="48" viewBox="0 0 147 48" fill="none" xmlns="http://www.w3.org/2000/svg">
<g opacity="0.3">
<path d="M134.054 23.5237C133.776 23.5237 133.406 23.5237 133.128 23.5237C133.128 18.903 130.904 14.6595 127.291 12.0191C123.586 9.37873 118.861 8.71864 114.6 10.2274C111.079 3.24924 103.297 -0.334156 95.8862 1.45754C88.4749 3.24924 83.1018 10.0388 83.1018 17.8657C83.1018 17.8657 83.1018 17.96 83.1018 18.0543C78.0065 17.2056 72.9112 19.3745 69.7615 23.5237C66.7043 27.7672 66.1485 33.3309 68.2792 38.0459C70.5026 42.7609 75.1346 45.8728 80.2299 46.1557V46.25H133.962C140.076 46.25 145.078 41.1578 145.078 34.934C145.078 28.7102 140.169 23.5237 134.054 23.5237Z" fill="white" stroke="#2D6A4F" stroke-opacity="0.25" stroke-width="2"/>
<path d="M101.054 23.5237C100.776 23.5237 100.406 23.5237 100.128 23.5237C100.128 18.903 97.9044 14.6595 94.2915 12.0191C90.5858 9.37873 85.8611 8.71864 81.5997 10.2274C78.0793 3.24924 70.2975 -0.334156 62.8862 1.45754C55.4749 3.24924 50.1018 10.0388 50.1018 17.8657C50.1018 17.8657 50.1018 17.96 50.1018 18.0543C45.0065 17.2056 39.9112 19.3745 36.7615 23.5237C33.7043 27.7672 33.1485 33.3309 35.2792 38.0459C37.5026 42.7609 42.1346 45.8728 47.2299 46.1557V46.25H100.962C107.076 46.25 112.078 41.1578 112.078 34.934C112.078 28.7102 107.169 23.5237 101.054 23.5237Z" fill="white" stroke="#2D6A4F" stroke-opacity="0.5" stroke-width="2"/>
<path d="M68.0542 23.5237C67.7763 23.5237 67.4057 23.5237 67.1278 23.5237C67.1278 18.903 64.9044 14.6595 61.2915 12.0191C57.5858 9.37873 52.8611 8.71864 48.5997 10.2274C45.0793 3.24924 37.2975 -0.334156 29.8862 1.45754C22.4749 3.24924 17.1018 10.0388 17.1018 17.8657C17.1018 17.8657 17.1018 17.96 17.1018 18.0543C12.0065 17.2056 6.91125 19.3745 3.76146 23.5237C0.704311 27.7672 0.148489 33.3309 2.27923 38.0459C4.50261 42.7609 9.13462 45.8728 14.2299 46.1557V46.25H67.9616C74.0759 46.25 79.0785 41.1578 79.0785 34.934C79.0785 28.7102 74.1685 23.5237 68.0542 23.5237Z" fill="white" stroke="#2D6A4F" stroke-width="2"/>
</g>
</svg>
