<svg viewBox="0 0 84 85" fill="none" xmlns="http://www.w3.org/2000/svg">
<path d="M70.0542 25.5237C69.7763 25.5237 69.4057 25.5237 69.1278 25.5237C69.1278 20.903 66.9044 16.6595 63.2915 14.0191C59.5858 11.3787 54.8611 10.7186 50.5997 12.2274C47.0793 5.24924 39.2975 1.66584 31.8862 3.45754C24.4749 5.24924 19.1018 12.0388 19.1018 19.8657C19.1018 19.8657 19.1018 19.96 19.1018 20.0543C14.0065 19.2056 8.91125 21.3745 5.76146 25.5237C2.70431 29.7672 2.14849 35.3309 4.27923 40.0459C6.50261 44.7609 11.1346 47.8728 16.2299 48.1557V48.25H69.9616C76.0759 48.25 81.0785 43.1578 81.0785 36.934C81.0785 30.7102 76.1685 25.5237 70.0542 25.5237Z" fill="white" stroke="#40916C" stroke-width="5"/>
<path d="M36.875 84.938L41.6875 68.7505H34.25L37.9338 49.168H48.9412L44.3125 63.5005H51.75L36.875 84.938Z" fill="#40916C"/>
</svg>
