<svg viewBox="0 0 97 70" fill="none" xmlns="http://www.w3.org/2000/svg">
<path d="M73.9752 34.4082C73.7225 34.4082 73.3855 34.4082 73.1328 34.4082C73.1328 30.2215 71.111 26.3766 67.8255 23.9842C64.4559 21.5918 60.1595 20.9937 56.2844 22.3608C53.0832 16.038 46.0068 12.7912 39.2674 14.4146C32.528 16.038 27.642 22.1899 27.642 29.2816C27.642 29.2816 27.642 29.3671 27.642 29.4525C23.0087 28.6836 18.3753 30.6487 15.5111 34.4082C12.7311 38.2532 12.2257 43.2943 14.1633 47.5665C16.1851 51.8386 20.3971 54.6582 25.0305 54.9146V55H73.8909C79.4509 55 84 50.3861 84 44.7468C84 39.1076 79.5352 34.4082 73.9752 34.4082Z" fill="#FFCA67" stroke="#FFCA67" stroke-width="5"/>
<line x1="26.5" y1="2" x2="26.5" y2="67" stroke="#888888" stroke-width="5"/>
<line x1="6.5" y1="2" x2="6.5" y2="67" stroke="#888888" stroke-width="5"/>
<line x1="90.5" y1="2" x2="90.5" y2="67" stroke="#888888" stroke-width="5"/>
<line x1="70.5" y1="2" x2="70.5" y2="67" stroke="#888888" stroke-width="5"/>
<line x1="48.5" y1="2" x2="48.5" y2="67" stroke="#888888" stroke-width="5"/>
<line x1="1" y1="3.5" x2="97" y2="3.5" stroke="#888888" stroke-width="7"/>
<line y1="66.5" x2="96" y2="66.5" stroke="#888888" stroke-width="7"/>
</svg>
