<svg width="22" height="23" viewBox="0 0 22 23" xmlns="http://www.w3.org/2000/svg">
<path d="M13.5353 22.25C14.2583 22.25 14.7703 21.6274 15.1419 20.6635L21.7188 3.48322C21.8995 3.02134 21.9999 2.60965 21.9999 2.26826C21.9999 1.61559 21.5983 1.21394 20.9456 1.21394C20.6042 1.21394 20.1925 1.31436 19.7306 1.49509L2.45999 8.11217C1.61654 8.43349 0.963867 8.94554 0.963867 9.67857C0.963867 10.6023 1.66674 10.9136 2.63068 11.2048L8.05286 12.8515C8.69546 13.0523 9.05695 13.0323 9.48872 12.6306L20.5038 2.33854C20.6343 2.21805 20.785 2.23813 20.8853 2.3285C20.9857 2.42892 20.9958 2.57953 20.8753 2.71006L10.6233 13.7652C10.2317 14.177 10.2016 14.5183 10.3924 15.1911L11.9889 20.4928C12.2902 21.507 12.6015 22.25 13.5353 22.25Z" />
</svg>
