<svg viewBox="0 0 41 42" fill="none" xmlns="http://www.w3.org/2000/svg">
<g clip-path="url(#clip0_250_2095)">
<path d="M0.669038 40.8313C1.57397 41.71 3.07356 41.71 3.95264 40.8313L20.4999 24.2944L37.0472 40.8313C37.9264 41.71 39.4517 41.7357 40.331 40.8313C41.2099 39.9269 41.2099 38.4542 40.331 37.5758L23.7836 21.0129L40.331 4.47594C41.2099 3.59742 41.2359 2.09875 40.331 1.22022C39.426 0.315859 37.9264 0.315859 37.0472 1.22022L20.4999 17.7572L3.95264 1.22022C3.07356 0.315859 1.54811 0.29002 0.669038 1.22022C-0.210038 2.12459 -0.210038 3.59742 0.669038 4.47594L17.2164 21.0129L0.669038 37.5758C-0.210038 38.4542 -0.235894 39.9529 0.669038 40.8313Z" fill="#40916C"/>
</g>
<defs>
<clipPath id="clip0_250_2095">
<rect width="41" height="41" fill="white" transform="translate(0 0.5)"/>
</clipPath>
</defs>
</svg>
