<svg viewBox="0 0 84 51" fill="none" xmlns="http://www.w3.org/2000/svg">
<path d="M48.6464 22.7522L48.2478 22.3536C47.662 21.7678 46.7123 21.7678 46.1265 22.3536L40.3536 28.1265C40.1583 28.3217 39.8417 28.3217 39.6464 28.1265L33.8735 22.3536C33.2877 21.7678 32.338 21.7678 31.7522 22.3536L31.3536 22.7522C30.7678 23.338 30.7678 24.2877 31.3536 24.8735L37.1265 30.6464C37.3217 30.8417 37.3217 31.1583 37.1265 31.3536L31.3536 37.1265C30.7678 37.7123 30.7678 38.662 31.3536 39.2478L31.7522 39.6464C32.338 40.2322 33.2877 40.2322 33.8735 39.6464L39.6464 33.8735C39.8417 33.6783 40.1583 33.6783 40.3536 33.8735L46.1265 39.6464C46.7123 40.2322 47.662 40.2322 48.2478 39.6464L48.6464 39.2478C49.2322 38.662 49.2322 37.7123 48.6464 37.1265L42.8735 31.3536C42.6783 31.1583 42.6783 30.8417 42.8735 30.6464L48.6464 24.8735C49.2322 24.2877 49.2322 23.338 48.6464 22.7522Z" fill="#B73333" stroke="#B73333"/>
<path d="M70.0542 25.5237C69.7763 25.5237 69.4057 25.5237 69.1278 25.5237C69.1278 20.903 66.9044 16.6595 63.2915 14.0191C59.5858 11.3787 54.8611 10.7186 50.5997 12.2274C47.0793 5.24924 39.2975 1.66584 31.8862 3.45754C24.4749 5.24924 19.1018 12.0388 19.1018 19.8657C19.1018 19.8657 19.1018 19.96 19.1018 20.0543C14.0065 19.2056 8.91125 21.3745 5.76146 25.5237C2.70431 29.7672 2.14849 35.3309 4.27923 40.0459C6.50261 44.7609 11.1346 47.8728 16.2299 48.1557V48.25H69.9616C76.0758 48.25 81.0785 43.1578 81.0785 36.934C81.0785 30.7102 76.1685 25.5237 70.0542 25.5237Z" stroke="#B73333" stroke-width="5"/>
</svg>
