<svg viewBox="0 0 102 64" fill="none" xmlns="http://www.w3.org/2000/svg">
<ellipse cx="62.8865" cy="18.8585" rx="20.1396" ry="14.878" />
<ellipse cx="45.9753" cy="32.6136" rx="17.0648" ry="12.6322" />
<ellipse cx="81.9499" cy="30.3678" rx="17.0648" ry="14.878" />
<ellipse cx="64.7313" cy="30.3678" rx="17.0648" ry="14.878" />
<path d="M79.9597 17.8815C79.5072 18.1026 79.0487 18.3475 78.5962 18.6044C77.2388 19.393 75.8994 20.3548 74.5299 21.46L71.6099 18.1504C72.6174 17.2244 73.7094 16.382 74.8678 15.6353C75.7909 15.0379 76.7561 14.5062 77.7516 14.0521C78.1498 13.855 78.548 13.6698 78.9582 13.4965C77.0337 10.1212 74.2645 7.70163 71.1273 6.2081C67.99 4.72054 64.4788 4.14702 61.058 4.4756C57.6613 4.7982 54.3612 6.0229 51.6343 8.11982C48.479 10.5393 46.0838 14.1597 45.1607 18.9569L44.8711 20.4564L43.3629 20.7193C41.8848 20.9761 40.5635 21.3286 39.4051 21.7767C38.283 22.2068 37.2815 22.7385 36.4067 23.3658C35.7069 23.8676 35.1035 24.4292 34.5907 25.0386C33.004 26.9204 32.268 29.2802 32.2861 31.6698C32.3042 34.0953 33.1005 36.5447 34.5726 38.558C35.1216 39.3048 35.7551 39.9918 36.4791 40.5892C37.2151 41.1926 38.0417 41.6944 38.9708 42.0708C39.8938 42.4472 40.9134 42.716 42.0416 42.8713H85.8119C87.9415 42.3635 89.8239 41.6765 91.4226 40.7923C93.0094 39.9141 94.3065 38.8448 95.2778 37.5603C96.7861 35.5709 97.5282 32.7571 97.5583 29.8716C97.5945 26.8427 96.8464 23.8019 95.3924 21.5915C94.9761 20.9522 94.5176 20.3787 94.035 19.865C91.857 17.541 89.0939 16.5254 86.2221 16.5075C84.1527 16.4896 81.9989 16.9854 79.9597 17.8815ZM83.3624 12.3376C84.3277 12.1882 85.293 12.1105 86.2523 12.1225C90.3065 12.1524 94.216 13.5861 97.2929 16.8719C97.9384 17.5589 98.5478 18.3356 99.1209 19.2018C101.051 22.1411 102.041 26.0661 101.999 29.9075C101.956 33.6771 100.931 37.4289 98.8313 40.1889C97.4618 41.9872 95.7062 43.4568 93.6006 44.6217C91.5735 45.7449 89.2085 46.5992 86.5539 47.2085L86.0592 47.2683H41.9692L41.6917 47.2444C40.0809 47.0413 38.6208 46.6649 37.2936 46.1213C35.924 45.5597 34.7114 44.8368 33.6435 43.9526C32.63 43.1163 31.7431 42.1664 30.989 41.1329C28.9739 38.3848 27.8879 35.0273 27.8638 31.6818C27.8397 28.3004 28.9015 24.937 31.1941 22.2128C31.9362 21.3286 32.811 20.5161 33.8125 19.7992C34.9768 18.9629 36.3102 18.2579 37.8184 17.6784C38.8561 17.2782 39.9662 16.9436 41.1367 16.6748C42.4639 11.4534 45.2935 7.43279 48.9314 4.64287C52.3341 2.03218 56.4306 0.508776 60.6477 0.108509C64.8468 -0.291757 69.1665 0.41319 73.0458 2.2592C77.275 4.27248 80.9673 7.62396 83.3624 12.3376Z" fill="currentColor"/>
<ellipse cx="49.3949" cy="27.2907" rx="20.1396" ry="14.878" />
<ellipse cx="32.4838" cy="41.0458" rx="17.0648" ry="12.6322" />
<ellipse cx="68.4583" cy="38.8001" rx="17.0648" ry="14.878" />
<ellipse cx="51.2397" cy="38.8001" rx="17.0648" ry="14.878" />
<path d="M66.6736 26.0307C66.2241 26.2541 65.7687 26.5016 65.3192 26.7612C63.9709 27.5581 62.6405 28.5301 61.2802 29.6469L58.3798 26.3024C59.3805 25.3667 60.4652 24.5155 61.6158 23.7608C62.5327 23.1571 63.4915 22.6198 64.4803 22.161C64.8758 21.9618 65.2713 21.7747 65.6788 21.5996C63.7671 18.1887 61.0165 15.7437 57.9004 14.2344C54.7842 12.7312 51.2965 12.1516 47.8987 12.4837C44.5248 12.8097 41.2469 14.0473 38.5382 16.1663C35.4041 18.6113 33.025 22.2697 32.1081 27.1174L31.8205 28.6327L30.3223 28.8983C28.8541 29.1579 27.5417 29.5141 26.3912 29.9669C25.2765 30.4015 24.2818 30.9388 23.4128 31.5727C22.7177 32.0798 22.1184 32.6473 21.6091 33.2631C20.033 35.1648 19.3019 37.5494 19.3199 39.9642C19.3378 42.4152 20.1289 44.8904 21.5911 46.9249C22.1364 47.6795 22.7656 48.3737 23.4847 48.9774C24.2158 49.5872 25.0368 50.0943 25.9597 50.4746C26.8766 50.855 27.8893 51.1266 29.0099 51.2836H72.4864C74.6018 50.7704 76.4715 50.0762 78.0595 49.1827C79.6356 48.2953 80.924 47.2146 81.8888 45.9167C83.387 43.9063 84.1241 41.0629 84.154 38.147C84.19 35.0863 83.4469 32.0134 82.0027 29.7797C81.5892 29.1338 81.1338 28.5542 80.6544 28.035C78.491 25.6866 75.7464 24.6603 72.8939 24.6422C70.8384 24.6241 68.6991 25.1252 66.6736 26.0307ZM70.0534 20.4284C71.0122 20.2775 71.971 20.199 72.9239 20.2111C76.9509 20.2413 80.8341 21.6901 83.8904 25.0105C84.5316 25.7048 85.1368 26.4896 85.7061 27.3649C87.6238 30.3351 88.6066 34.3015 88.5646 38.1833C88.5227 41.9926 87.5039 45.7839 85.4185 48.573C84.0582 50.3901 82.3143 51.8752 80.2229 53.0524C78.2094 54.1874 75.8603 55.0507 73.2235 55.6665L72.7321 55.7268H28.938L28.6624 55.7027C27.0623 55.4974 25.6121 55.1171 24.2937 54.5677C22.9334 54.0002 21.7289 53.2698 20.6682 52.3763C19.6615 51.5311 18.7805 50.5712 18.0315 49.5268C16.0299 46.7498 14.9512 43.357 14.9273 39.9763C14.9033 36.5593 15.958 33.1605 18.2352 30.4076C18.9723 29.5141 19.8412 28.6931 20.836 27.9686C21.9926 27.1234 23.3169 26.4111 24.8151 25.8255C25.8458 25.421 26.9485 25.0829 28.111 24.8113C29.4294 19.5349 32.24 15.472 35.8535 12.6527C39.2334 10.0145 43.3023 8.47511 47.4912 8.07063C51.6621 7.66615 55.9528 8.37851 59.806 10.244C64.0069 12.2784 67.6743 15.6652 70.0534 20.4284Z" fill="currentColor"/>
<ellipse cx="33.9759" cy="35.7229" rx="20.1396" ry="14.878" />
<ellipse cx="17.0648" cy="49.478" rx="17.0648" ry="12.6322" />
<ellipse cx="53.0394" cy="47.2323" rx="17.0648" ry="14.878" />
<ellipse cx="35.8207" cy="47.2323" rx="17.0648" ry="14.878" />
<path d="M51.7467 34.3011C51.2972 34.5221 50.8418 34.767 50.3924 35.0239C49.044 35.8125 47.7136 36.7743 46.3533 37.8796L43.4529 34.5699C44.4537 33.6439 45.5383 32.8015 46.6889 32.0548C47.6058 31.4574 48.5646 30.9257 49.5534 30.4716C49.9489 30.2745 50.3444 30.0893 50.7519 29.916C48.8403 26.5407 46.0897 24.1211 42.9735 22.6276C39.8573 21.14 36.3696 20.5665 32.9718 20.8951C29.598 21.2177 26.32 22.4424 23.6113 24.5393C20.4772 26.9588 18.0981 30.5792 17.1812 35.3764L16.8936 36.8759L15.3954 37.1388C13.9273 37.3957 12.6149 37.7481 11.4643 38.1962C10.3497 38.6263 9.35488 39.158 8.48595 39.7853C7.79081 40.2871 7.19155 40.8487 6.68217 41.4581C5.10611 43.3399 4.37501 45.6997 4.39299 48.0893C4.41097 50.5148 5.20199 52.9642 6.6642 54.9775C7.20952 55.7243 7.83875 56.4113 8.55786 57.0087C9.28896 57.6121 10.11 58.1139 11.0328 58.4903C11.9497 58.8667 12.9624 59.1355 14.0831 59.2908H57.5595C59.6749 58.783 61.5446 58.096 63.1327 57.2118C64.7087 56.3336 65.9971 55.2643 66.962 53.9798C68.4601 51.9905 69.1972 49.1766 69.2272 46.2911C69.2631 43.2622 68.52 40.2214 67.0758 38.011C66.6623 37.3718 66.2069 36.7982 65.7275 36.2845C63.5641 33.9605 60.8195 32.9449 57.967 32.927C55.9116 32.9091 53.7722 33.4049 51.7467 34.3011ZM55.1265 28.7571C56.0853 28.6077 57.0442 28.53 57.997 28.542C62.024 28.5719 65.9072 30.0057 68.9635 33.2914C69.6047 33.9785 70.21 34.7551 70.7793 35.6213C72.6969 38.5606 73.6797 42.4856 73.6377 46.327C73.5958 50.0967 72.577 53.8484 70.4916 56.6085C69.1313 58.4067 67.3874 59.8763 65.296 61.0413C63.2825 62.1644 60.9334 63.0187 58.2966 63.6281L57.8052 63.6878H14.0111L13.7355 63.6639C12.1355 63.4608 10.6852 63.0844 9.36687 62.5408C8.00654 61.9792 6.80203 61.2563 5.74133 60.3722C4.73457 59.5358 3.85365 58.5859 3.10458 57.5524C1.10304 54.8043 0.0243698 51.4468 0.000399311 48.1013C-0.0235712 44.7199 1.03113 41.3565 3.30833 38.6323C4.04542 37.7481 4.91435 36.9356 5.90912 36.2188C7.0657 35.3824 8.39007 34.6774 9.88822 34.0979C10.919 33.6977 12.0216 33.3631 13.1842 33.0943C14.5025 27.8729 17.3131 23.8523 20.9266 21.0624C24.3065 18.4517 28.3755 16.9283 32.5643 16.528C36.7352 16.1278 41.0259 16.8327 44.8791 18.6787C49.08 20.692 52.7475 24.0435 55.1265 28.7571Z" fill="currentColor"/>
</svg>
