<svg viewBox="0 0 437 274" fill="none" xmlns="http://www.w3.org/2000/svg" fill="currentColor">
<path fill="currentColor" d="M342.356 77.7825C340.434 78.7317 338.485 79.7836 336.563 80.8867C332.52 83.2602 328.515 85.9992 324.477 89.0596C321.313 88.512 318.104 88.1934 314.869 88.0908L306.878 78.937C311.159 74.9606 315.799 71.3434 320.721 68.1366C324.643 65.5712 328.744 63.288 332.974 61.3383C334.666 60.4918 336.358 59.6965 338.101 58.9525C329.923 44.458 318.157 34.0681 304.827 27.6547C291.497 21.2668 276.578 18.804 262.043 20.215C247.61 21.6003 233.588 26.8594 222.001 35.8639C221.825 36.0005 221.649 36.138 221.474 36.2763C215.749 35.8522 209.999 35.917 204.301 36.466C200.716 36.8099 197.151 37.3469 193.626 38.0758C198.563 31.501 204.258 25.784 210.517 20.9333C224.975 9.72251 242.381 3.18075 260.299 1.46193C278.141 -0.256887 296.496 2.77028 312.979 10.6974C330.949 19.3428 346.637 33.7346 356.814 53.9756C360.916 53.3343 365.017 53.0008 369.093 53.0521C386.32 53.1804 402.931 59.3373 416.005 73.447C418.748 76.3972 421.337 79.7322 423.772 83.4521C431.975 96.0738 436.18 112.929 436 129.424C435.821 145.612 431.463 161.722 422.542 173.575C416.723 181.296 409.263 187.607 400.317 192.61C391.703 197.433 381.654 201.101 370.375 203.718L369.766 203.792C373.691 197.271 376.458 189.796 378.118 181.911C382.815 180.268 387.14 178.358 391.062 176.166C397.804 172.394 403.316 167.802 407.443 162.287C413.852 153.744 417.005 141.661 417.133 129.27C417.287 116.264 414.108 103.206 407.93 93.7137C406.161 90.9687 404.213 88.5059 402.162 86.2997C392.908 76.3203 381.167 71.9591 368.965 71.8821C360.172 71.8052 351.021 73.9344 342.356 77.7825Z" fill="currentColor" />
<path fill="currentColor" d="M204.654 55.3646C204.594 55.4628 204.535 55.5613 204.476 55.66C201.086 56.0231 197.76 56.5325 194.51 57.1793C197.847 56.3577 201.237 55.7523 204.654 55.3646Z" fill="currentColor" />
<path fill="currentColor" d="M280.563 115.887C282.486 114.784 284.434 113.732 286.356 112.783C295.021 108.934 304.173 106.805 312.965 106.882C325.167 106.959 336.908 111.32 346.162 121.3C348.213 123.506 350.161 125.969 351.93 128.714C358.108 138.206 361.287 151.264 361.133 164.27C361.005 176.661 357.852 188.744 351.443 197.287C347.316 202.802 341.804 207.394 335.062 211.166C328.269 214.962 320.271 217.913 311.222 220.093H304.181C301.929 226.93 298.394 233.294 293.818 238.975H312.273L314.375 238.718C325.654 236.101 335.703 232.433 344.317 227.61C353.263 222.607 360.723 216.296 366.542 208.575C375.463 196.722 379.821 180.612 380 164.424C380.18 147.929 375.975 131.074 367.772 118.452C365.337 114.732 362.748 111.397 360.005 108.447C346.931 94.3373 330.32 88.1804 313.093 88.0521C309.017 88.0008 304.916 88.3343 300.814 88.9756C290.637 68.7346 274.949 54.3428 256.979 45.6974C240.496 37.7703 222.141 34.7431 204.299 36.4619C186.381 38.1807 168.975 44.7225 154.517 55.9333C142.568 65.1942 132.671 77.613 126.189 93.1304C133.367 91.3963 140.962 90.3419 148.833 90.0702C153.52 82.413 159.365 76.0068 166.001 70.8639C177.588 61.8594 191.61 56.6003 206.043 55.215C220.578 53.804 235.497 56.2668 248.827 62.6547C262.157 69.0681 273.923 79.458 282.101 93.9525C280.358 94.6965 278.666 95.4918 276.974 96.3383C272.744 98.288 268.643 100.571 264.721 103.137C259.799 106.343 255.159 109.961 250.878 113.937L263.285 128.149C269.104 123.403 274.795 119.273 280.563 115.887Z" fill="currentColor" />
<path fill="currentColor" d="M67.0437 155.164C66.6888 156.546 66.3808 157.938 66.1191 159.339C66.53 159.277 66.9422 159.217 67.3555 159.16C67.1962 157.839 67.0917 156.507 67.0437 155.164Z" fill="currentColor" />
<path fill="currentColor" d="M222.356 147.783C220.434 148.732 218.485 149.784 216.563 150.887C210.795 154.273 205.104 158.403 199.285 163.149L186.878 148.937C191.159 144.961 195.799 141.343 200.721 138.137C204.643 135.571 208.744 133.288 212.974 131.338C214.666 130.492 216.358 129.696 218.101 128.953C209.923 114.458 198.157 104.068 184.827 97.6546C171.497 91.2668 156.578 88.804 142.043 90.215C127.61 91.6003 113.588 96.8594 102.001 105.864C88.5941 116.254 78.4171 131.8 74.495 152.4L73.2645 158.839L66.8558 159.968C60.5753 161.071 54.9613 162.585 50.0394 164.509C45.2714 166.356 41.016 168.639 37.299 171.333C34.3253 173.488 31.7618 175.899 29.5829 178.516C22.8409 186.597 19.7135 196.73 19.7904 206.992C19.8673 217.407 23.2511 227.926 29.506 236.571C31.8387 239.778 34.5304 242.728 37.6066 245.293C40.734 247.884 44.246 250.039 48.1937 251.656C52.1158 253.272 56.4481 254.426 61.2418 255.093H247.222C256.271 252.913 264.269 249.962 271.062 246.166C277.804 242.394 283.316 237.802 287.443 232.287C293.852 223.744 297.005 211.661 297.133 199.27C297.287 186.264 294.108 173.206 287.93 163.714C286.161 160.969 284.213 158.506 282.162 156.3C272.908 146.32 261.167 141.959 248.965 141.882C240.172 141.805 231.021 143.934 222.356 147.783ZM236.814 123.976C240.916 123.334 245.017 123.001 249.093 123.052C266.32 123.18 282.931 129.337 296.005 143.447C298.748 146.397 301.337 149.732 303.772 153.452C311.975 166.074 316.18 182.929 316 199.424C315.821 215.612 311.463 231.722 302.542 243.575C296.723 251.296 289.263 257.607 280.317 262.61C271.703 267.433 261.654 271.101 250.375 273.718L248.273 273.975H60.9342L59.755 273.872C52.9105 273 46.7069 271.383 41.0673 269.049C35.2482 266.637 30.0956 263.533 25.5582 259.737C21.2516 256.145 17.4833 252.066 14.2789 247.628C5.71692 235.827 1.10266 221.409 1.00012 207.043C0.897582 192.523 5.4093 178.08 15.1505 166.382C18.3036 162.585 22.0206 159.096 26.276 156.017C31.2235 152.426 36.8888 149.399 43.2975 146.91C47.7067 145.191 52.4235 143.755 57.3966 142.6C63.0363 120.179 75.059 102.914 90.5167 90.9333C104.975 79.7225 122.381 73.1807 140.299 71.4619C158.141 69.7431 176.496 72.7703 192.979 80.6974C210.949 89.3428 226.637 103.735 236.814 123.976Z" fill="currentColor" />
</svg>
